<mxfile host="app.diagrams.net" modified="2022-09-08T16:03:42.690Z" agent="5.0 (Windows NT 10.0; Win64; x64) AppleWebKit/537.36 (KHTML, like Gecko) Chrome/104.0.0.0 Safari/537.36" etag="E5QzApUXmCgJ6C-5MqLC" version="20.3.0" type="github">
  <diagram id="8VcVCVTn3-Plq7ZN7-Ow" name="第 1 页">
    <mxGraphModel dx="1718" dy="928" grid="1" gridSize="10" guides="1" tooltips="1" connect="1" arrows="1" fold="1" page="1" pageScale="1" pageWidth="827" pageHeight="1169" math="0" shadow="0">
      <root>
        <mxCell id="0" />
        <mxCell id="1" parent="0" />
        <mxCell id="SZFpOPhuuLJHxvcIcTJ8-3" value="" style="edgeStyle=orthogonalEdgeStyle;rounded=0;orthogonalLoop=1;jettySize=auto;html=1;" edge="1" parent="1" source="SZFpOPhuuLJHxvcIcTJ8-1" target="SZFpOPhuuLJHxvcIcTJ8-2">
          <mxGeometry relative="1" as="geometry" />
        </mxCell>
        <mxCell id="SZFpOPhuuLJHxvcIcTJ8-1" value="设计理念" style="rounded=1;whiteSpace=wrap;html=1;" vertex="1" parent="1">
          <mxGeometry x="150" y="130" width="120" height="60" as="geometry" />
        </mxCell>
        <mxCell id="SZFpOPhuuLJHxvcIcTJ8-2" value="&lt;div style=&quot;&quot;&gt;&lt;span style=&quot;background-color: initial;&quot;&gt;引用官网：&lt;/span&gt;&lt;/div&gt;&lt;div style=&quot;text-align: left;&quot;&gt;&lt;span style=&quot;color: rgb(107, 107, 107); font-family: -apple-system, BlinkMacSystemFont, &amp;quot;Segoe UI&amp;quot;, Roboto, Oxygen, Ubuntu, Cantarell, &amp;quot;Fira Sans&amp;quot;, &amp;quot;Droid Sans&amp;quot;, &amp;quot;Helvetica Neue&amp;quot;, sans-serif; background-color: initial;&quot;&gt;&lt;font style=&quot;font-size: 17px;&quot;&gt;React 是用 JavaScript 构建快速响应的大型 Web 应用程序的首选方式。&lt;/font&gt;&lt;/span&gt;&lt;/div&gt;" style="rounded=1;whiteSpace=wrap;html=1;dashed=1;" vertex="1" parent="1">
          <mxGeometry x="350" y="130" width="620" height="60" as="geometry" />
        </mxCell>
        <mxCell id="SZFpOPhuuLJHxvcIcTJ8-6" style="edgeStyle=orthogonalEdgeStyle;rounded=0;orthogonalLoop=1;jettySize=auto;html=1;entryX=0.5;entryY=0;entryDx=0;entryDy=0;fontSize=11;" edge="1" parent="1" source="SZFpOPhuuLJHxvcIcTJ8-4" target="SZFpOPhuuLJHxvcIcTJ8-5">
          <mxGeometry relative="1" as="geometry" />
        </mxCell>
        <mxCell id="SZFpOPhuuLJHxvcIcTJ8-4" value="追求即使是大型 Web 应用，也能快速响应" style="shape=note;strokeWidth=2;fontSize=14;size=20;whiteSpace=wrap;html=1;fillColor=#fff2cc;strokeColor=#d6b656;fontColor=#666600;dashed=1;" vertex="1" parent="1">
          <mxGeometry x="470" y="210" width="310" height="40" as="geometry" />
        </mxCell>
        <mxCell id="SZFpOPhuuLJHxvcIcTJ8-10" style="edgeStyle=orthogonalEdgeStyle;rounded=0;orthogonalLoop=1;jettySize=auto;html=1;exitX=0.25;exitY=1;exitDx=0;exitDy=0;fontSize=11;" edge="1" parent="1" source="SZFpOPhuuLJHxvcIcTJ8-5" target="SZFpOPhuuLJHxvcIcTJ8-8">
          <mxGeometry relative="1" as="geometry" />
        </mxCell>
        <mxCell id="SZFpOPhuuLJHxvcIcTJ8-11" style="edgeStyle=orthogonalEdgeStyle;rounded=0;orthogonalLoop=1;jettySize=auto;html=1;exitX=0.75;exitY=1;exitDx=0;exitDy=0;entryX=0.5;entryY=0;entryDx=0;entryDy=0;fontSize=11;" edge="1" parent="1" source="SZFpOPhuuLJHxvcIcTJ8-5" target="SZFpOPhuuLJHxvcIcTJ8-9">
          <mxGeometry relative="1" as="geometry" />
        </mxCell>
        <mxCell id="SZFpOPhuuLJHxvcIcTJ8-5" value="&lt;font style=&quot;font-size: 11px;&quot;&gt;什么阻碍了快速响应？&lt;/font&gt;" style="rounded=1;whiteSpace=wrap;html=1;fontSize=17;" vertex="1" parent="1">
          <mxGeometry x="555" y="380" width="140" height="60" as="geometry" />
        </mxCell>
        <mxCell id="SZFpOPhuuLJHxvcIcTJ8-13" value="" style="edgeStyle=orthogonalEdgeStyle;rounded=0;orthogonalLoop=1;jettySize=auto;html=1;fontSize=11;" edge="1" parent="1" source="SZFpOPhuuLJHxvcIcTJ8-8" target="SZFpOPhuuLJHxvcIcTJ8-12">
          <mxGeometry relative="1" as="geometry" />
        </mxCell>
        <mxCell id="SZFpOPhuuLJHxvcIcTJ8-8" value="计算能力" style="rounded=1;whiteSpace=wrap;html=1;fontSize=11;" vertex="1" parent="1">
          <mxGeometry x="370" y="500" width="120" height="60" as="geometry" />
        </mxCell>
        <mxCell id="SZFpOPhuuLJHxvcIcTJ8-15" value="" style="edgeStyle=orthogonalEdgeStyle;rounded=0;orthogonalLoop=1;jettySize=auto;html=1;fontSize=11;" edge="1" parent="1" source="SZFpOPhuuLJHxvcIcTJ8-9" target="SZFpOPhuuLJHxvcIcTJ8-14">
          <mxGeometry relative="1" as="geometry" />
        </mxCell>
        <mxCell id="SZFpOPhuuLJHxvcIcTJ8-9" value="网络延迟" style="rounded=1;whiteSpace=wrap;html=1;fontSize=11;" vertex="1" parent="1">
          <mxGeometry x="770" y="500" width="120" height="60" as="geometry" />
        </mxCell>
        <mxCell id="SZFpOPhuuLJHxvcIcTJ8-12" value="CPU" style="whiteSpace=wrap;html=1;fontSize=11;rounded=1;" vertex="1" parent="1">
          <mxGeometry x="370" y="640" width="120" height="60" as="geometry" />
        </mxCell>
        <mxCell id="SZFpOPhuuLJHxvcIcTJ8-14" value="IO" style="whiteSpace=wrap;html=1;fontSize=11;rounded=1;" vertex="1" parent="1">
          <mxGeometry x="770" y="640" width="120" height="60" as="geometry" />
        </mxCell>
      </root>
    </mxGraphModel>
  </diagram>
</mxfile>
